<svg xmlns="http://www.w3.org/2000/svg" viewBox="0 0 512.001 512.001"><path d="M465.972 372.171H315.624c-25.38 0-46.028 20.648-46.028 46.028 0 5.722 4.655 10.378 10.378 10.378h221.65c5.722 0 10.378-4.655 10.378-10.378-.002-25.38-20.65-46.028-46.03-46.028zm-173.938 36.007c3.909-9.167 13.011-15.609 23.59-15.609h150.348c10.579 0 19.68 6.441 23.589 15.609H292.034zM461.544 297.414v-158.29c12.129-3.199 21.1-14.262 21.1-27.382 0-15.615-12.703-28.318-28.318-28.318H327.269c-15.614 0-28.317 12.703-28.317 28.318 0 13.12 8.971 24.182 21.1 27.382v52.551h-98.913c-.515-5.151-4.861-9.173-10.147-9.173H35.772C16.046 182.503 0 198.549 0 218.274s16.046 35.771 35.772 35.771h175.219c5.286 0 9.633-4.023 10.147-9.173h98.913v52.543c-12.129 3.174-21.1 14.146-21.1 27.16 0 15.614 12.703 28.317 28.317 28.317h127.058c15.615 0 28.318-12.703 28.318-28.317 0-13.014-8.972-23.987-21.1-27.161zm-260.752-63.767H35.772c-8.477-.001-15.373-6.898-15.373-15.373 0-8.477 6.897-15.372 15.373-15.372h165.02v30.745zM319.35 111.742c0-4.367 3.552-7.92 7.919-7.92h127.058c4.366 0 7.92 3.552 7.92 7.92s-3.552 7.92-7.92 7.92H327.269c-4.366 0-7.919-3.553-7.919-7.92zm121.795 28.318v156.426H340.449V140.06h100.696zM221.19 224.473v-12.398h98.861v12.398H221.19zm233.137 108.021H327.269c-4.366 0-7.919-3.551-7.919-7.919 0-4.313 3.479-7.69 7.919-7.69h127.058c4.441 0 7.92 3.378 7.92 7.69-.001 4.366-3.553 7.919-7.92 7.919z"/><path d="M421.227 206.024c-5.633 0-10.199 4.567-10.199 10.199v60.175c0 5.632 4.566 10.199 10.199 10.199s10.199-4.567 10.199-10.199v-60.175c0-5.631-4.566-10.199-10.199-10.199zM421.227 174.407c-5.633 0-10.199 4.567-10.199 10.199v3.06c0 5.632 4.566 10.199 10.199 10.199s10.199-4.567 10.199-10.199v-3.06c0-5.632-4.566-10.199-10.199-10.199z"/></svg>