<svg xmlns="http://www.w3.org/2000/svg" viewBox="0 0 315.752 315.752"><path d="M263.89 8.743a5.503 5.503 0 00-5.503 5.503v257.607c0 .854.199 1.696.581 2.461l14.829 29.654a5.503 5.503 0 009.844 0l14.828-29.654a5.504 5.504 0 00.581-2.461V14.246a5.503 5.503 0 00-5.503-5.503H263.89zm24.154 261.809l-9.325 18.649-9.326-18.649V19.749h18.651v250.803zM304.746 48.037v87.789a5.503 5.503 0 0011.006 0V48.037a5.503 5.503 0 00-11.006 0zM186.526 164.64H47.204a5.504 5.504 0 000 11.006h139.322a5.502 5.502 0 100-11.006zM186.526 246.068H47.204a5.503 5.503 0 000 11.006h139.322a5.503 5.503 0 000-11.006zM186.526 129.295H47.204a5.503 5.503 0 000 11.006h139.322a5.503 5.503 0 000-11.006zM47.204 104.959h82.709a5.504 5.504 0 000-11.006H47.204a5.502 5.502 0 100 11.006zM47.204 69.615h82.709a5.502 5.502 0 100-11.006H47.204a5.504 5.504 0 000 11.006z"/><path d="M5.488 306.568h222.754a5.488 5.488 0 005.488-5.488V87.843l-.001-.022a5.677 5.677 0 00-.027-.525 5.173 5.173 0 00-.059-.396c-.008-.045-.012-.091-.02-.136a5.598 5.598 0 00-.115-.459l-.016-.061a6.586 6.586 0 00-.16-.446c-.008-.019-.014-.039-.021-.058a4.772 4.772 0 00-.191-.402c-.014-.027-.025-.057-.04-.084-.064-.119-.136-.234-.208-.349-.024-.037-.045-.077-.069-.113a5.312 5.312 0 00-.223-.301c-.033-.043-.064-.089-.098-.132a5.262 5.262 0 00-.303-.333c-.02-.021-.036-.043-.057-.063L158.948 10.79a5.59 5.59 0 00-.397-.359c-.036-.029-.075-.055-.111-.083a5.5 5.5 0 00-.32-.237c-.032-.021-.067-.04-.1-.061a5.75 5.75 0 00-.361-.217c-.022-.012-.047-.021-.069-.033a5.107 5.107 0 00-.417-.197l-.047-.018a5.786 5.786 0 00-.457-.164l-.053-.013a5.229 5.229 0 00-.467-.118c-.043-.008-.089-.012-.132-.02-.133-.023-.266-.047-.4-.06a5.25 5.25 0 00-.548-.028H5.488A5.49 5.49 0 000 14.671V301.08a5.488 5.488 0 005.488 5.488zM214.995 82.357l-54.434.006-.003-54.441 54.437 54.435zM10.976 20.16h138.605l.004 67.692a5.488 5.488 0 005.488 5.487l67.682-.008v202.261H10.976V20.16z"/></svg>