<svg xmlns="http://www.w3.org/2000/svg" viewBox="0 0 463 463"><path d="M383.5 16H183v-.5C183 6.953 176.047 0 167.5 0h-48C110.953 0 104 6.953 104 15.5v.5H79.5C66.542 16 56 26.542 56 39.5v400c0 12.958 10.542 23.5 23.5 23.5h304c12.958 0 23.5-10.542 23.5-23.5v-400c0-12.958-10.542-23.5-23.5-23.5zM119 15.5a.5.5 0 01.5-.5h48a.5.5 0 01.5.5v91.865l-21.146-10.573a7.493 7.493 0 00-6.708 0L119 107.365V15.5zm273 424c0 4.687-3.813 8.5-8.5 8.5h-304c-4.687 0-8.5-3.813-8.5-8.5v-400c0-4.687 3.813-8.5 8.5-8.5H104v88.5a7.501 7.501 0 0010.855 6.708l28.646-14.323 28.646 14.323a7.502 7.502 0 007.297-.328 7.501 7.501 0 003.557-6.38V31h200.5c4.687 0 8.5 3.813 8.5 8.5v400z"/><path d="M342.97 286.908c-.005-.07-.007-.141-.014-.21-.016-.15-.043-.299-.068-.448-.017-.103-.031-.206-.052-.307-.021-.099-.051-.198-.076-.297-.038-.148-.074-.297-.121-.442-.021-.064-.047-.128-.07-.192a7.522 7.522 0 00-.2-.519l-.015-.039L311 213.909V207h8.5c4.143 0 7.5-3.358 7.5-7.5s-3.357-7.5-7.5-7.5H239v-10.234c9.29-3.138 16-11.93 16-22.266 0-12.958-10.542-23.5-23.5-23.5S208 146.542 208 159.5c0 10.336 6.71 19.128 16 22.266V192h-80.5c-4.143 0-7.5 3.358-7.5 7.5s3.357 7.5 7.5 7.5h8.5v6.909l-31.354 70.545c-.006.013-.01.027-.015.04a7.162 7.162 0 00-.199.517c-.023.064-.05.128-.071.193-.047.145-.083.293-.121.442-.026.099-.055.198-.076.297-.021.101-.034.205-.052.307-.025.149-.052.298-.068.448-.007.069-.009.14-.014.21a7.207 7.207 0 00-.028.549l-.002.043c0 17.369 17.72 31.5 39.5 31.5s39.5-14.131 39.5-31.5l-.002-.043a7.233 7.233 0 00-.028-.549c-.005-.07-.007-.141-.014-.21-.016-.15-.043-.299-.068-.448-.017-.103-.031-.206-.052-.307-.021-.099-.051-.198-.076-.297-.038-.148-.074-.297-.121-.442-.021-.064-.047-.128-.07-.192a7.522 7.522 0 00-.2-.519l-.015-.039L167 213.909V207h57v66.234c-9.29 3.138-16 11.93-16 22.266V352h-16.5c-4.143 0-7.5 3.358-7.5 7.5s3.357 7.5 7.5 7.5h80c4.143 0 7.5-3.358 7.5-7.5s-3.357-7.5-7.5-7.5H255v-56.5c0-10.336-6.71-19.128-16-22.266V207h57v6.909l-31.354 70.545c-.006.013-.01.027-.015.04a7.162 7.162 0 00-.199.517c-.023.064-.05.128-.071.193-.047.145-.083.293-.121.442-.026.099-.055.198-.076.297-.021.101-.034.205-.052.307-.025.149-.052.298-.068.448-.007.069-.009.14-.014.21a7.207 7.207 0 00-.028.549l-.002.043c0 17.369 17.72 31.5 39.5 31.5s39.5-14.131 39.5-31.5l-.002-.043a7.207 7.207 0 00-.028-.549zM231.5 151c4.687 0 8.5 3.813 8.5 8.5s-3.813 8.5-8.5 8.5-8.5-3.813-8.5-8.5 3.813-8.5 8.5-8.5zm-72 82.967L179.959 280H139.04l20.46-46.033zm0 70.033c-9.302 0-17.592-3.706-21.725-9h43.449c-4.132 5.294-12.422 9-21.724 9zm80.5 48h-17v-56.5c0-4.687 3.813-8.5 8.5-8.5s8.5 3.813 8.5 8.5V352zm63.5-118.033L323.959 280H283.04l20.46-46.033zm0 70.033c-9.302 0-17.592-3.706-21.725-9h43.449c-4.132 5.294-12.422 9-21.724 9z"/></svg>