<svg xmlns="http://www.w3.org/2000/svg" viewBox="0 0 368.666 368.666"><path d="M184.333 0C102.01 0 35.036 66.974 35.036 149.297c0 33.968 11.132 65.959 32.193 92.515 27.27 34.383 106.571 116.021 109.934 119.479l7.17 7.375 7.17-7.374c3.363-3.459 82.688-85.116 109.963-119.51 21.042-26.534 32.164-58.515 32.164-92.485C333.63 66.974 266.655 0 184.333 0zm101.463 229.355c-21.957 27.687-80.921 89.278-101.463 110.581-20.54-21.302-79.482-82.875-101.434-110.552-18.229-22.984-27.863-50.677-27.863-80.087C55.036 78.002 113.038 20 184.333 20S313.63 78.002 313.63 149.297c0 29.411-9.625 57.095-27.834 80.058z"/><path d="M211.022 115.646l-26.689-53.841-26.689 53.841-57.325 6.604 40.577 41.755-11.794 58.616 55.231-30.22 55.231 30.22-11.794-58.616 40.577-41.755-57.325-6.604zm.463 68.814l-27.152-14.856-27.153 14.856 5.4-26.837-19.589-20.157 27.741-3.196 13.6-27.434 13.6 27.434 27.741 3.196-19.589 20.157 5.401 26.837z"/></svg>