<?xml version="1.0" encoding="iso-8859-1"?>
<!-- Generator: Adobe Illustrator 17.1.0, SVG Export Plug-In . SVG Version: 6.00 Build 0)  -->
<!DOCTYPE svg PUBLIC "-//W3C//DTD SVG 1.1//EN" "http://www.w3.org/Graphics/SVG/1.1/DTD/svg11.dtd">
<svg version="1.1" id="Capa_1" xmlns="http://www.w3.org/2000/svg" xmlns:xlink="http://www.w3.org/1999/xlink" x="0px" y="0px"
	 viewBox="0 0 511 511" style="enable-background:new 0 0 511 511;" xml:space="preserve">
<path d="M343.5,304H255v-17h23.991c17.369,0,31.5-14.131,31.5-31.5c0-33.049,19.125-56.822,39.373-81.99
	c18.336-22.792,37.297-46.36,40.585-77.216c2.304-21.625-2.796-40.699-14.75-55.161c-11.988-14.502-28.696-21.846-42.179-24.308
	C330.636,7.109,321.631,0,310.991,0h-8c-12.958,0-23.5,10.542-23.5,23.5s10.542,23.5,23.5,23.5h8c9.968,0,18.5-6.241,21.91-15.018
	c10.23,2.251,22.378,7.991,31.237,18.709c9.455,11.438,13.289,26.247,11.396,44.015c-2.821,26.476-19.596,47.327-37.356,69.402
	c-19.59,24.35-39.795,49.477-42.398,83.893h-97.067c-2.603-34.416-22.808-59.543-42.398-83.893
	c-17.76-22.075-34.535-42.927-37.356-69.402c-1.894-17.768,1.94-32.577,11.396-44.015c8.859-10.718,21.007-16.458,31.237-18.709
	C165,40.759,173.532,47,183.5,47h8c12.958,0,23.5-10.542,23.5-23.5S204.458,0,191.5,0h-8c-10.64,0-19.645,7.109-22.529,16.826
	c-13.483,2.462-30.192,9.806-42.179,24.308c-11.954,14.461-17.054,33.536-14.75,55.161c3.288,30.855,22.249,54.423,40.585,77.215
	C164.875,198.678,184,222.451,184,255.5c0,17.369,14.131,31.5,31.5,31.5H240v17h-81.598c-3.607-22.64-23.263-40-46.902-40
	C85.309,264,64,285.309,64,311.5S85.309,359,111.5,359c23.639,0,43.295-17.36,46.902-40H240v88.5c0,57.07,46.43,103.5,103.5,103.5
	S447,464.57,447,407.5S400.57,304,343.5,304z M310.991,32h-8c-4.687,0-8.5-3.813-8.5-8.5s3.813-8.5,8.5-8.5h8
	c4.687,0,8.5,3.813,8.5,8.5S315.678,32,310.991,32z M183.5,15h8c4.687,0,8.5,3.813,8.5,8.5s-3.813,8.5-8.5,8.5h-8
	c-4.687,0-8.5-3.813-8.5-8.5S178.813,15,183.5,15z M200.805,263h92.881c-2.735,5.338-8.295,9-14.695,9h-32H215.5
	C209.101,272,203.541,268.338,200.805,263z M111.5,344C93.58,344,79,329.42,79,311.5S93.58,279,111.5,279
	c15.339,0,28.221,10.685,31.617,25h-9.351c-3.138-9.29-11.93-16-22.266-16C98.542,288,88,298.542,88,311.5S98.542,335,111.5,335
	c10.336,0,19.128-6.71,22.266-16h9.351C139.721,333.315,126.839,344,111.5,344z M120,311.5c0,4.687-3.813,8.5-8.5,8.5
	s-8.5-3.813-8.5-8.5s3.813-8.5,8.5-8.5S120,306.813,120,311.5z M343.5,496c-48.799,0-88.5-39.701-88.5-88.5V319h88.5
	c48.799,0,88.5,39.701,88.5,88.5S392.299,496,343.5,496z"/>
<g>
</g>
<g>
</g>
<g>
</g>
<g>
</g>
<g>
</g>
<g>
</g>
<g>
</g>
<g>
</g>
<g>
</g>
<g>
</g>
<g>
</g>
<g>
</g>
<g>
</g>
<g>
</g>
<g>
</g>
</svg>
