<svg xmlns="http://www.w3.org/2000/svg" viewBox="0 0 60.002 60.002"><path d="M59.002 37.992a6.701 6.701 0 01-6.693-6.693 1 1 0 10-2 0c0 4.794 3.899 8.693 8.693 8.693a1 1 0 100-2z"/><path d="M58.256 35.65a1 1 0 100-2c-.886 0-1.605-.72-1.605-1.605a1 1 0 10-2 0 3.608 3.608 0 003.605 3.605zM20.002 2.992a6.7 6.7 0 016.693 6.693 1 1 0 102 0c0-4.794-3.9-8.693-8.693-8.693a1 1 0 100 2z"/><path d="M19.748 6.334a1 1 0 001 1c.885 0 1.604.72 1.604 1.605a1 1 0 102 0 3.609 3.609 0 00-3.604-3.605 1 1 0 00-1 1zM44.076 37.889c-1.276-.728-2.597-.958-3.721-.646-.844.234-1.532.768-1.996 1.546-1.02 1.22-2.286 2.646-2.592 2.867-2.367 1.604-4.25 1.415-6.294-.629L17.987 29.542c-2.045-2.045-2.233-3.928-.631-6.291.224-.31 1.65-1.575 2.87-2.596.778-.464 1.312-1.152 1.546-1.996.311-1.123.082-2.444-.652-3.731-.173-.296-4.291-7.27-8.085-9.277a4.909 4.909 0 00-5.796.872L4.7 9.059C.686 13.073-.767 17.622.379 22.579c.956 4.132 3.742 8.529 8.282 13.068l14.705 14.706c5.762 5.762 11.258 8.656 16.298 8.656 3.701 0 7.157-1.562 10.291-4.695l2.537-2.537a4.907 4.907 0 00.872-5.796c-2.008-3.795-8.981-7.912-9.288-8.092zm7.002 12.474L48.541 52.9c-6.569 6.567-14.563 5.235-23.76-3.961L10.075 34.233c-4.271-4.271-6.877-8.344-7.747-12.104-.995-4.301.244-8.112 3.786-11.655l2.537-2.537a2.925 2.925 0 013.446-.518c3.293 1.743 7.256 8.454 7.29 8.511.449.787.62 1.608.457 2.196-.1.36-.324.634-.684.836l-.15.104c-.853.712-2.883 2.434-3.308 3.061-.612.904-1.018 1.792-1.231 2.665-.711-1.418-1.286-3.06-1.475-4.881a1.012 1.012 0 00-1.098-.892 1.002 1.002 0 00-.892 1.099c.722 6.953 6.129 11.479 6.359 11.668.025.02.054.028.08.045l10.613 10.613c.045.045.092.085.137.129.035.051.058.108.104.154.189.187 4.704 4.567 11.599 5.283a1.001 1.001 0 00.206-1.99c-2.114-.219-3.987-.839-5.548-1.558.765-.23 1.543-.612 2.332-1.146.628-.426 2.35-2.455 3.061-3.308l.104-.151c.202-.359.476-.583.836-.684.588-.159 1.409.008 2.186.45.067.04 6.778 4.003 8.521 7.296a2.916 2.916 0 01-.518 3.444z"/></svg>