<svg width="48" height="48" viewBox="0 0 48 48" fill="none" xmlns="http://www.w3.org/2000/svg">
<path d="M24 46C36.1503 46 46 36.1503 46 24C46 11.8497 36.1503 2 24 2C11.8497 2 2 11.8497 2 24C2 36.1503 11.8497 46 24 46Z" stroke="white" stroke-width="4"/>
<path fill-rule="evenodd" clip-rule="evenodd" d="M32.5261 18.8457C33.4161 18.2841 34.099 17.3936 34.4194 16.3328C33.5862 16.8541 32.6654 17.2311 31.683 17.4352C30.8991 16.5512 29.7787 16 28.5387 16C26.1597 16 24.2319 18.0345 24.2319 20.5436C24.2319 20.8998 24.2677 21.2469 24.3416 21.5784C20.7621 21.3886 17.5881 19.5815 15.4619 16.8307C15.0909 17.5041 14.8789 18.2841 14.8789 19.1161C14.8789 20.6918 15.6394 22.0828 16.7956 22.8992C16.0893 22.8758 15.4249 22.6691 14.8431 22.3311V22.387C14.8431 24.5892 16.3272 26.4261 18.3006 26.8421C17.9382 26.9487 17.5585 27.002 17.1641 27.002C16.8868 27.002 16.6156 26.9747 16.3543 26.9214C16.9016 28.7258 18.4929 30.0415 20.3788 30.0766C18.9033 31.296 17.0458 32.0214 15.028 32.0214C14.6804 32.0214 14.3365 32.0019 14 31.959C15.9068 33.2473 18.1712 34 20.6043 34C28.53 34 32.8614 27.0761 32.8614 21.0714C32.8614 20.8738 32.859 20.6775 32.8503 20.4837C33.6922 19.8428 34.4244 19.042 35 18.1307C34.2272 18.4921 33.3964 18.7365 32.5261 18.8457Z" fill="white"/>
</svg>
