<svg width="48" height="48" viewBox="0 0 48 48" fill="none" xmlns="http://www.w3.org/2000/svg">
<path d="M24 46C36.1503 46 46 36.1503 46 24C46 11.8497 36.1503 2 24 2C11.8497 2 2 11.8497 2 24C2 36.1503 11.8497 46 24 46Z" stroke="white" stroke-width="4"/>
<path fill-rule="evenodd" clip-rule="evenodd" d="M34 27.5642V20.4358C34 20.4358 34 17 30.5534 17H17.4454C17.4454 17 14 17 14 20.4358V27.5642C14 27.5642 14 31 17.4454 31H30.5534C30.5534 31 34 31 34 27.5642ZM27.8829 24.01L21.3354 27.8432V20.1756L27.8829 24.01Z" fill="white"/>
</svg>
